<?xml version="1.0" encoding="utf-8" standalone="no"?>
<!DOCTYPE svg PUBLIC "-//W3C//DTD SVG 1.1//EN"
  "http://www.w3.org/Graphics/SVG/1.1/DTD/svg11.dtd">
<svg xmlns:xlink="http://www.w3.org/1999/xlink" width="460.8pt" height="345.6pt" viewBox="0 0 460.8 345.6" xmlns="http://www.w3.org/2000/svg" version="1.1">
 <metadata>
  <rdf:RDF xmlns:dc="http://purl.org/dc/elements/1.1/" xmlns:cc="http://creativecommons.org/ns#" xmlns:rdf="http://www.w3.org/1999/02/22-rdf-syntax-ns#">
   <cc:Work>
    <dc:type rdf:resource="http://purl.org/dc/dcmitype/StillImage"/>
    <dc:date>2026-08-12T12:50:36.685411</dc:date>
    <dc:format>image/svg+xml</dc:format>
    <dc:creator>
     <cc:Agent>
      <dc:title>Matplotlib v3.11.1, https://matplotlib.org/</dc:title>
     </cc:Agent>
    </dc:creator>
   </cc:Work>
  </rdf:RDF>
 </metadata>
 <defs>
  <style type="text/css">*{stroke-linejoin: round; stroke-linecap: butt}</style>
 </defs>
 <g id="figure_1">
  <g id="patch_1">
   <path d="M 0 345.6 
L 460.8 345.6 
L 460.8 0 
L 0 0 
z
" style="fill: #ffffff"/>
  </g>
  <g id="axes_1">
   <g id="patch_2">
    <path d="M 47.962344 301.715312 
L 450 301.715312 
L 450 10.8 
L 47.962344 10.8 
z
" style="fill: #ffffff"/>
   </g>
   <g id="PathCollection_1">
    <defs>
     <path id="C0_0_034f0a98d4" d="M 0 3 
C 0.795609 3 1.55874 2.683901 2.12132 2.12132 
C 2.683901 1.55874 3 0.795609 3 -0 
C 3 -0.795609 2.683901 -1.55874 2.12132 -2.12132 
C 1.55874 -2.683901 0.795609 -3 0 -3 
C -0.795609 -3 -1.55874 -2.683901 -2.12132 -2.12132 
C -2.683901 -1.55874 -3 -0.795609 -3 0 
C -3 0.795609 -2.683901 1.55874 -2.12132 2.12132 
C -1.55874 2.683901 -0.795609 3 0 3 
z
"/>
    </defs>
    <g clip-path="url(#pa366b6870a)">
     <use xlink:href="#C0_0_034f0a98d4" x="300.856447" y="91.702413" style="fill: #440154; stroke: #440154"/>
    </g>
    <g clip-path="url(#pa366b6870a)">
     <use xlink:href="#C0_0_034f0a98d4" x="267.03326" y="110.233551" style="fill: #440154; stroke: #440154"/>
    </g>
    <g clip-path="url(#pa366b6870a)">
     <use xlink:href="#C0_0_034f0a98d4" x="219.454474" y="64.920561" style="fill: #440154; stroke: #440154"/>
    </g>
    <g clip-path="url(#pa366b6870a)">
     <use xlink:href="#C0_0_034f0a98d4" x="290.173437" y="80.207998" style="fill: #440154; stroke: #440154"/>
    </g>
    <g clip-path="url(#pa366b6870a)">
     <use xlink:href="#C0_0_034f0a98d4" x="313.242081" y="75.12092" style="fill: #440154; stroke: #440154"/>
    </g>
    <g clip-path="url(#pa366b6870a)">
     <use xlink:href="#C0_0_034f0a98d4" x="352.317698" y="105.171495" style="fill: #440154; stroke: #440154"/>
    </g>
    <g clip-path="url(#pa366b6870a)">
     <use xlink:href="#C0_0_034f0a98d4" x="170.85503" y="96.393135" style="fill: #440154; stroke: #440154"/>
    </g>
    <g clip-path="url(#pa366b6870a)">
     <use xlink:href="#C0_0_034f0a98d4" x="228.83697" y="72.85546" style="fill: #440154; stroke: #440154"/>
    </g>
    <g clip-path="url(#pa366b6870a)">
     <use xlink:href="#C0_0_034f0a98d4" x="303.584888" y="75.787058" style="fill: #440154; stroke: #440154"/>
    </g>
    <g clip-path="url(#pa366b6870a)">
     <use xlink:href="#C0_0_034f0a98d4" x="277.829235" y="124.658138" style="fill: #440154; stroke: #440154"/>
    </g>
    <g clip-path="url(#pa366b6870a)">
     <use xlink:href="#C0_0_034f0a98d4" x="348.939866" y="111.089593" style="fill: #440154; stroke: #440154"/>
    </g>
    <g clip-path="url(#pa366b6870a)">
     <use xlink:href="#C0_0_034f0a98d4" x="424.327038" y="135.744923" style="fill: #440154; stroke: #440154"/>
    </g>
    <g clip-path="url(#pa366b6870a)">
     <use xlink:href="#C0_0_034f0a98d4" x="300.559065" y="125.24792" style="fill: #440154; stroke: #440154"/>
    </g>
    <g clip-path="url(#pa366b6870a)">
     <use xlink:href="#C0_0_034f0a98d4" x="295.169283" y="87.539018" style="fill: #440154; stroke: #440154"/>
    </g>
    <g clip-path="url(#pa366b6870a)">
     <use xlink:href="#C0_0_034f0a98d4" x="348.918193" y="70.934624" style="fill: #440154; stroke: #440154"/>
    </g>
    <g clip-path="url(#pa366b6870a)">
     <use xlink:href="#C0_0_034f0a98d4" x="322.845976" y="107.148322" style="fill: #440154; stroke: #440154"/>
    </g>
    <g clip-path="url(#pa366b6870a)">
     <use xlink:href="#C0_0_034f0a98d4" x="261.147442" y="221.597963" style="fill: #440154; stroke: #440154"/>
    </g>
    <g clip-path="url(#pa366b6870a)">
     <use xlink:href="#C0_0_034f0a98d4" x="233.42743" y="190.318988" style="fill: #440154; stroke: #440154"/>
    </g>
    <g clip-path="url(#pa366b6870a)">
     <use xlink:href="#C0_0_034f0a98d4" x="379.804727" y="98.939466" style="fill: #440154; stroke: #440154"/>
    </g>
    <g clip-path="url(#pa366b6870a)">
     <use xlink:href="#C0_0_034f0a98d4" x="394.655023" y="156.392463" style="fill: #440154; stroke: #440154"/>
    </g>
    <g clip-path="url(#pa366b6870a)">
     <use xlink:href="#C0_0_034f0a98d4" x="277.338673" y="202.438279" style="fill: #440154; stroke: #440154"/>
    </g>
    <g clip-path="url(#pa366b6870a)">
     <use xlink:href="#C0_0_034f0a98d4" x="374.364282" y="99.91171" style="fill: #440154; stroke: #440154"/>
    </g>
    <g clip-path="url(#pa366b6870a)">
     <use xlink:href="#C0_0_034f0a98d4" x="222.41297" y="165.581463" style="fill: #440154; stroke: #440154"/>
    </g>
    <g clip-path="url(#pa366b6870a)">
     <use xlink:href="#C0_0_034f0a98d4" x="273.021395" y="174.72868" style="fill: #440154; stroke: #440154"/>
    </g>
    <g clip-path="url(#pa366b6870a)">
     <use xlink:href="#C0_0_034f0a98d4" x="352.853801" y="237.644902" style="fill: #440154; stroke: #440154"/>
    </g>
    <g clip-path="url(#pa366b6870a)">
     <use xlink:href="#C0_0_034f0a98d4" x="350.724207" y="150.277863" style="fill: #440154; stroke: #440154"/>
    </g>
    <g clip-path="url(#pa366b6870a)">
     <use xlink:href="#C0_0_034f0a98d4" x="293.94338" y="132.835307" style="fill: #440154; stroke: #440154"/>
    </g>
    <g clip-path="url(#pa366b6870a)">
     <use xlink:href="#C0_0_034f0a98d4" x="382.656949" y="143.923224" style="fill: #440154; stroke: #440154"/>
    </g>
    <g clip-path="url(#pa366b6870a)">
     <use xlink:href="#C0_0_034f0a98d4" x="280.980927" y="287.056134" style="fill: #440154; stroke: #440154"/>
    </g>
    <g clip-path="url(#pa366b6870a)">
     <use xlink:href="#C0_0_034f0a98d4" x="322.722774" y="162.068469" style="fill: #440154; stroke: #440154"/>
    </g>
    <g clip-path="url(#pa366b6870a)">
     <use xlink:href="#C0_0_034f0a98d4" x="253.999525" y="174.610827" style="fill: #440154; stroke: #440154"/>
    </g>
    <g clip-path="url(#pa366b6870a)">
     <use xlink:href="#C0_0_034f0a98d4" x="383.894326" y="128.379068" style="fill: #440154; stroke: #440154"/>
    </g>
    <g clip-path="url(#pa366b6870a)">
     <use xlink:href="#C0_0_034f0a98d4" x="329.063825" y="262.699961" style="fill: #440154; stroke: #440154"/>
    </g>
    <g clip-path="url(#pa366b6870a)">
     <use xlink:href="#C0_0_034f0a98d4" x="343.928166" y="233.172927" style="fill: #440154; stroke: #440154"/>
    </g>
    <g clip-path="url(#pa366b6870a)">
     <use xlink:href="#C0_0_034f0a98d4" x="282.698345" y="267.260343" style="fill: #440154; stroke: #440154"/>
    </g>
    <g clip-path="url(#pa366b6870a)">
     <use xlink:href="#C0_0_034f0a98d4" x="379.675118" y="180.333634" style="fill: #440154; stroke: #440154"/>
    </g>
    <g clip-path="url(#pa366b6870a)">
     <use xlink:href="#C0_0_034f0a98d4" x="333.118228" y="288.491889" style="fill: #440154; stroke: #440154"/>
    </g>
    <g clip-path="url(#pa366b6870a)">
     <use xlink:href="#C0_0_034f0a98d4" x="319.733302" y="238.707111" style="fill: #440154; stroke: #440154"/>
    </g>
    <g clip-path="url(#pa366b6870a)">
     <use xlink:href="#C0_0_034f0a98d4" x="315.767801" y="282.291148" style="fill: #440154; stroke: #440154"/>
    </g>
    <g clip-path="url(#pa366b6870a)">
     <use xlink:href="#C0_0_034f0a98d4" x="385.226704" y="117.364955" style="fill: #440154; stroke: #440154"/>
    </g>
    <g clip-path="url(#pa366b6870a)">
     <use xlink:href="#C0_0_034f0a98d4" x="261.147442" y="221.597963" style="fill: #440154; stroke: #440154"/>
    </g>
    <g clip-path="url(#pa366b6870a)">
     <use xlink:href="#C0_0_034f0a98d4" x="233.42743" y="190.318988" style="fill: #440154; stroke: #440154"/>
    </g>
    <g clip-path="url(#pa366b6870a)">
     <use xlink:href="#C0_0_034f0a98d4" x="379.804727" y="98.939466" style="fill: #440154; stroke: #440154"/>
    </g>
    <g clip-path="url(#pa366b6870a)">
     <use xlink:href="#C0_0_034f0a98d4" x="394.655023" y="156.392463" style="fill: #440154; stroke: #440154"/>
    </g>
    <g clip-path="url(#pa366b6870a)">
     <use xlink:href="#C0_0_034f0a98d4" x="213.122188" y="198.893345" style="fill: #440154; stroke: #440154"/>
    </g>
    <g clip-path="url(#pa366b6870a)">
     <use xlink:href="#C0_0_034f0a98d4" x="164.161849" y="175.492695" style="fill: #440154; stroke: #440154"/>
    </g>
    <g clip-path="url(#pa366b6870a)">
     <use xlink:href="#C0_0_034f0a98d4" x="342.801816" y="79.865775" style="fill: #440154; stroke: #440154"/>
    </g>
    <g clip-path="url(#pa366b6870a)">
     <use xlink:href="#C0_0_034f0a98d4" x="349.63506" y="148.751756" style="fill: #440154; stroke: #440154"/>
    </g>
    <g clip-path="url(#pa366b6870a)">
     <use xlink:href="#C0_0_034f0a98d4" x="189.505566" y="184.997325" style="fill: #440154; stroke: #440154"/>
    </g>
    <g clip-path="url(#pa366b6870a)">
     <use xlink:href="#C0_0_034f0a98d4" x="325.946552" y="71.650938" style="fill: #440154; stroke: #440154"/>
    </g>
    <g clip-path="url(#pa366b6870a)">
     <use xlink:href="#C0_0_034f0a98d4" x="317.749737" y="143.152016" style="fill: #440154; stroke: #440154"/>
    </g>
    <g clip-path="url(#pa366b6870a)">
     <use xlink:href="#C0_0_034f0a98d4" x="150.398379" y="167.446547" style="fill: #440154; stroke: #440154"/>
    </g>
    <g clip-path="url(#pa366b6870a)">
     <use xlink:href="#C0_0_034f0a98d4" x="295.960288" y="57.652623" style="fill: #440154; stroke: #440154"/>
    </g>
    <g clip-path="url(#pa366b6870a)">
     <use xlink:href="#C0_0_034f0a98d4" x="273.139172" y="140.237296" style="fill: #440154; stroke: #440154"/>
    </g>
    <g clip-path="url(#pa366b6870a)">
     <use xlink:href="#C0_0_034f0a98d4" x="109.527005" y="148.844712" style="fill: #440154; stroke: #440154"/>
    </g>
    <g clip-path="url(#pa366b6870a)">
     <use xlink:href="#C0_0_034f0a98d4" x="257.858392" y="42.969557" style="fill: #440154; stroke: #440154"/>
    </g>
    <g clip-path="url(#pa366b6870a)">
     <use xlink:href="#C0_0_034f0a98d4" x="222.971017" y="136.930485" style="fill: #440154; stroke: #440154"/>
    </g>
    <g clip-path="url(#pa366b6870a)">
     <use xlink:href="#C0_0_034f0a98d4" x="261.147442" y="221.597963" style="fill: #440154; stroke: #440154"/>
    </g>
    <g clip-path="url(#pa366b6870a)">
     <use xlink:href="#C0_0_034f0a98d4" x="251.182592" y="250.998002" style="fill: #440154; stroke: #440154"/>
    </g>
    <g clip-path="url(#pa366b6870a)">
     <use xlink:href="#C0_0_034f0a98d4" x="241.337813" y="208.623533" style="fill: #440154; stroke: #440154"/>
    </g>
    <g clip-path="url(#pa366b6870a)">
     <use xlink:href="#C0_0_034f0a98d4" x="233.42743" y="190.318988" style="fill: #440154; stroke: #440154"/>
    </g>
    <g clip-path="url(#pa366b6870a)">
     <use xlink:href="#C0_0_034f0a98d4" x="346.913916" y="127.072295" style="fill: #440154; stroke: #440154"/>
    </g>
    <g clip-path="url(#pa366b6870a)">
     <use xlink:href="#C0_0_034f0a98d4" x="275.328009" y="126.027676" style="fill: #440154; stroke: #440154"/>
    </g>
    <g clip-path="url(#pa366b6870a)">
     <use xlink:href="#C0_0_034f0a98d4" x="379.804727" y="98.939466" style="fill: #440154; stroke: #440154"/>
    </g>
    <g clip-path="url(#pa366b6870a)">
     <use xlink:href="#C0_0_034f0a98d4" x="295.600012" y="128.550696" style="fill: #440154; stroke: #440154"/>
    </g>
    <g clip-path="url(#pa366b6870a)">
     <use xlink:href="#C0_0_034f0a98d4" x="193.137481" y="104.840742" style="fill: #440154; stroke: #440154"/>
    </g>
    <g clip-path="url(#pa366b6870a)">
     <use xlink:href="#C0_0_034f0a98d4" x="394.655023" y="156.392463" style="fill: #440154; stroke: #440154"/>
    </g>
    <g clip-path="url(#pa366b6870a)">
     <use xlink:href="#C0_0_034f0a98d4" x="404.662737" y="138.738924" style="fill: #440154; stroke: #440154"/>
    </g>
    <g clip-path="url(#pa366b6870a)">
     <use xlink:href="#C0_0_034f0a98d4" x="174.589597" y="24.023423" style="fill: #440154; stroke: #440154"/>
    </g>
    <g clip-path="url(#pa366b6870a)">
     <use xlink:href="#C0_0_034f0a98d4" x="151.396515" y="168.081962" style="fill: #440154; stroke: #440154"/>
    </g>
    <g clip-path="url(#pa366b6870a)">
     <use xlink:href="#C0_0_034f0a98d4" x="131.474169" y="217.391357" style="fill: #440154; stroke: #440154"/>
    </g>
    <g clip-path="url(#pa366b6870a)">
     <use xlink:href="#C0_0_034f0a98d4" x="95.765571" y="189.284061" style="fill: #440154; stroke: #440154"/>
    </g>
    <g clip-path="url(#pa366b6870a)">
     <use xlink:href="#C0_0_034f0a98d4" x="66.236783" y="154.59821" style="fill: #440154; stroke: #440154"/>
    </g>
    <g clip-path="url(#pa366b6870a)">
     <use xlink:href="#C0_0_034f0a98d4" x="246.834238" y="90.398854" style="fill: #440154; stroke: #440154"/>
    </g>
    <g clip-path="url(#pa366b6870a)">
     <use xlink:href="#C0_0_034f0a98d4" x="170.062525" y="87.467987" style="fill: #440154; stroke: #440154"/>
    </g>
    <g clip-path="url(#pa366b6870a)">
     <use xlink:href="#C0_0_034f0a98d4" x="295.954925" y="57.660773" style="fill: #440154; stroke: #440154"/>
    </g>
    <g clip-path="url(#pa366b6870a)">
     <use xlink:href="#C0_0_034f0a98d4" x="169.16639" y="88.389366" style="fill: #440154; stroke: #440154"/>
    </g>
    <g clip-path="url(#pa366b6870a)">
     <use xlink:href="#C0_0_034f0a98d4" x="273.029395" y="140.229762" style="fill: #440154; stroke: #440154"/>
    </g>
    <g clip-path="url(#pa366b6870a)">
     <use xlink:href="#C0_0_034f0a98d4" x="295.439822" y="105.537647" style="fill: #440154; stroke: #440154"/>
    </g>
    <g clip-path="url(#pa366b6870a)">
     <use xlink:href="#C0_0_034f0a98d4" x="293.718735" y="224.536728" style="fill: #fde725; stroke: #fde725"/>
    </g>
    <g clip-path="url(#pa366b6870a)">
     <use xlink:href="#C0_0_034f0a98d4" x="240.381699" y="173.854398" style="fill: #fde725; stroke: #fde725"/>
    </g>
    <g clip-path="url(#pa366b6870a)">
     <use xlink:href="#C0_0_034f0a98d4" x="307.854856" y="158.50249" style="fill: #fde725; stroke: #fde725"/>
    </g>
    <g clip-path="url(#pa366b6870a)">
     <use xlink:href="#C0_0_034f0a98d4" x="431.725561" y="94.55778" style="fill: #fde725; stroke: #fde725"/>
    </g>
    <g clip-path="url(#pa366b6870a)">
     <use xlink:href="#C0_0_034f0a98d4" x="375.862009" y="120.080117" style="fill: #fde725; stroke: #fde725"/>
    </g>
    <g clip-path="url(#pa366b6870a)">
     <use xlink:href="#C0_0_034f0a98d4" x="377.067626" y="101.384532" style="fill: #fde725; stroke: #fde725"/>
    </g>
    <g clip-path="url(#pa366b6870a)">
     <use xlink:href="#C0_0_034f0a98d4" x="416.89993" y="77.660232" style="fill: #fde725; stroke: #fde725"/>
    </g>
    <g clip-path="url(#pa366b6870a)">
     <use xlink:href="#C0_0_034f0a98d4" x="169.663658" y="80.794252" style="fill: #fde725; stroke: #fde725"/>
    </g>
    <g clip-path="url(#pa366b6870a)">
     <use xlink:href="#C0_0_034f0a98d4" x="431.116254" y="125.426953" style="fill: #fde725; stroke: #fde725"/>
    </g>
    <g clip-path="url(#pa366b6870a)">
     <use xlink:href="#C0_0_034f0a98d4" x="421.944888" y="122.618249" style="fill: #fde725; stroke: #fde725"/>
    </g>
    <g clip-path="url(#pa366b6870a)">
     <use xlink:href="#C0_0_034f0a98d4" x="214.098387" y="226.392407" style="fill: #440154; stroke: #440154"/>
    </g>
    <g clip-path="url(#pa366b6870a)">
     <use xlink:href="#C0_0_034f0a98d4" x="198.695801" y="275.275419" style="fill: #440154; stroke: #440154"/>
    </g>
    <g clip-path="url(#pa366b6870a)">
     <use xlink:href="#C0_0_034f0a98d4" x="209.670445" y="203.773994" style="fill: #440154; stroke: #440154"/>
    </g>
    <g clip-path="url(#pa366b6870a)">
     <use xlink:href="#C0_0_034f0a98d4" x="225.095067" y="175.472939" style="fill: #440154; stroke: #440154"/>
    </g>
    <g clip-path="url(#pa366b6870a)">
     <use xlink:href="#C0_0_034f0a98d4" x="202.4407" y="210.679884" style="fill: #440154; stroke: #440154"/>
    </g>
    <g clip-path="url(#pa366b6870a)">
     <use xlink:href="#C0_0_034f0a98d4" x="248.482807" y="102.756878" style="fill: #440154; stroke: #440154"/>
    </g>
    <g clip-path="url(#pa366b6870a)">
     <use xlink:href="#C0_0_034f0a98d4" x="246.703492" y="75.297771" style="fill: #440154; stroke: #440154"/>
    </g>
    <g clip-path="url(#pa366b6870a)">
     <use xlink:href="#C0_0_034f0a98d4" x="124.14726" y="37.455249" style="fill: #440154; stroke: #440154"/>
    </g>
    <g clip-path="url(#pa366b6870a)">
     <use xlink:href="#C0_0_034f0a98d4" x="308.565408" y="100.58869" style="fill: #440154; stroke: #440154"/>
    </g>
    <g clip-path="url(#pa366b6870a)">
     <use xlink:href="#C0_0_034f0a98d4" x="300.609077" y="94.79779" style="fill: #440154; stroke: #440154"/>
    </g>
    <g clip-path="url(#pa366b6870a)">
     <use xlink:href="#C0_0_034f0a98d4" x="134.908691" y="74.930686" style="fill: #440154; stroke: #440154"/>
    </g>
    <g clip-path="url(#pa366b6870a)">
     <use xlink:href="#C0_0_034f0a98d4" x="290.125947" y="154.7223" style="fill: #21918c; stroke: #21918c"/>
    </g>
    <g clip-path="url(#pa366b6870a)">
     <use xlink:href="#C0_0_034f0a98d4" x="367.067623" y="68.378784" style="fill: #21918c; stroke: #21918c"/>
    </g>
    <g clip-path="url(#pa366b6870a)">
     <use xlink:href="#C0_0_034f0a98d4" x="336.367711" y="217.240266" style="fill: #21918c; stroke: #21918c"/>
    </g>
    <g clip-path="url(#pa366b6870a)">
     <use xlink:href="#C0_0_034f0a98d4" x="377.73698" y="128.477436" style="fill: #21918c; stroke: #21918c"/>
    </g>
    <g clip-path="url(#pa366b6870a)">
     <use xlink:href="#C0_0_034f0a98d4" x="392.711221" y="100.821265" style="fill: #21918c; stroke: #21918c"/>
    </g>
    <g clip-path="url(#pa366b6870a)">
     <use xlink:href="#C0_0_034f0a98d4" x="274.942474" y="112.371555" style="fill: #21918c; stroke: #21918c"/>
    </g>
    <g clip-path="url(#pa366b6870a)">
     <use xlink:href="#C0_0_034f0a98d4" x="309.489614" y="78.445593" style="fill: #21918c; stroke: #21918c"/>
    </g>
    <g clip-path="url(#pa366b6870a)">
     <use xlink:href="#C0_0_034f0a98d4" x="339.067467" y="171.512662" style="fill: #21918c; stroke: #21918c"/>
    </g>
    <g clip-path="url(#pa366b6870a)">
     <use xlink:href="#C0_0_034f0a98d4" x="270.347551" y="262.610493" style="fill: #21918c; stroke: #21918c"/>
    </g>
    <g clip-path="url(#pa366b6870a)">
     <use xlink:href="#C0_0_034f0a98d4" x="430.607509" y="93.412384" style="fill: #21918c; stroke: #21918c"/>
    </g>
    <g clip-path="url(#pa366b6870a)">
     <use xlink:href="#C0_0_034f0a98d4" x="350.72314" y="122.122647" style="fill: #21918c; stroke: #21918c"/>
    </g>
    <g clip-path="url(#pa366b6870a)">
     <use xlink:href="#C0_0_034f0a98d4" x="390.443292" y="86.981121" style="fill: #21918c; stroke: #21918c"/>
    </g>
    <g clip-path="url(#pa366b6870a)">
     <use xlink:href="#C0_0_034f0a98d4" x="361.762671" y="121.39614" style="fill: #21918c; stroke: #21918c"/>
    </g>
    <g clip-path="url(#pa366b6870a)">
     <use xlink:href="#C0_0_034f0a98d4" x="309.930997" y="134.826799" style="fill: #21918c; stroke: #21918c"/>
    </g>
    <g clip-path="url(#pa366b6870a)">
     <use xlink:href="#C0_0_034f0a98d4" x="320.573126" y="165.509108" style="fill: #21918c; stroke: #21918c"/>
    </g>
    <g clip-path="url(#pa366b6870a)">
     <use xlink:href="#C0_0_034f0a98d4" x="380.358182" y="106.961909" style="fill: #21918c; stroke: #21918c"/>
    </g>
    <g clip-path="url(#pa366b6870a)">
     <use xlink:href="#C0_0_034f0a98d4" x="301.217183" y="111.317858" style="fill: #fde725; stroke: #fde725"/>
    </g>
    <g clip-path="url(#pa366b6870a)">
     <use xlink:href="#C0_0_034f0a98d4" x="380.574759" y="75.92229" style="fill: #fde725; stroke: #fde725"/>
    </g>
    <g clip-path="url(#pa366b6870a)">
     <use xlink:href="#C0_0_034f0a98d4" x="300.642858" y="165.941333" style="fill: #fde725; stroke: #fde725"/>
    </g>
    <g clip-path="url(#pa366b6870a)">
     <use xlink:href="#C0_0_034f0a98d4" x="417.256391" y="115.400721" style="fill: #fde725; stroke: #fde725"/>
    </g>
    <g clip-path="url(#pa366b6870a)">
     <use xlink:href="#C0_0_034f0a98d4" x="389.689294" y="72.517342" style="fill: #fde725; stroke: #fde725"/>
    </g>
    <g clip-path="url(#pa366b6870a)">
     <use xlink:href="#C0_0_034f0a98d4" x="369.970095" y="146.095304" style="fill: #fde725; stroke: #fde725"/>
    </g>
    <g clip-path="url(#pa366b6870a)">
     <use xlink:href="#C0_0_034f0a98d4" x="293.556554" y="189.464108" style="fill: #fde725; stroke: #fde725"/>
    </g>
    <g clip-path="url(#pa366b6870a)">
     <use xlink:href="#C0_0_034f0a98d4" x="293.718735" y="224.536728" style="fill: #fde725; stroke: #fde725"/>
    </g>
    <g clip-path="url(#pa366b6870a)">
     <use xlink:href="#C0_0_034f0a98d4" x="431.725561" y="94.55778" style="fill: #fde725; stroke: #fde725"/>
    </g>
    <g clip-path="url(#pa366b6870a)">
     <use xlink:href="#C0_0_034f0a98d4" x="377.067626" y="101.384532" style="fill: #fde725; stroke: #fde725"/>
    </g>
    <g clip-path="url(#pa366b6870a)">
     <use xlink:href="#C0_0_034f0a98d4" x="431.116254" y="125.426953" style="fill: #fde725; stroke: #fde725"/>
    </g>
    <g clip-path="url(#pa366b6870a)">
     <use xlink:href="#C0_0_034f0a98d4" x="398.70642" y="112.70701" style="fill: #fde725; stroke: #fde725"/>
    </g>
    <g clip-path="url(#pa366b6870a)">
     <use xlink:href="#C0_0_034f0a98d4" x="346.217898" y="93.248308" style="fill: #fde725; stroke: #fde725"/>
    </g>
    <g clip-path="url(#pa366b6870a)">
     <use xlink:href="#C0_0_034f0a98d4" x="363.571181" y="94.322505" style="fill: #fde725; stroke: #fde725"/>
    </g>
    <g clip-path="url(#pa366b6870a)">
     <use xlink:href="#C0_0_034f0a98d4" x="365.111892" y="103.560747" style="fill: #fde725; stroke: #fde725"/>
    </g>
    <g clip-path="url(#pa366b6870a)">
     <use xlink:href="#C0_0_034f0a98d4" x="358.745801" y="128.451788" style="fill: #440154; stroke: #440154"/>
    </g>
    <g clip-path="url(#pa366b6870a)">
     <use xlink:href="#C0_0_034f0a98d4" x="396.03217" y="104.343939" style="fill: #440154; stroke: #440154"/>
    </g>
    <g clip-path="url(#pa366b6870a)">
     <use xlink:href="#C0_0_034f0a98d4" x="403.409374" y="139.883342" style="fill: #440154; stroke: #440154"/>
    </g>
    <g clip-path="url(#pa366b6870a)">
     <use xlink:href="#C0_0_034f0a98d4" x="413.055998" y="169.886295" style="fill: #440154; stroke: #440154"/>
    </g>
    <g clip-path="url(#pa366b6870a)">
     <use xlink:href="#C0_0_034f0a98d4" x="387.593734" y="145.158573" style="fill: #440154; stroke: #440154"/>
    </g>
    <g clip-path="url(#pa366b6870a)">
     <use xlink:href="#C0_0_034f0a98d4" x="394.154218" y="103.863331" style="fill: #440154; stroke: #440154"/>
    </g>
    <g clip-path="url(#pa366b6870a)">
     <use xlink:href="#C0_0_034f0a98d4" x="292.424875" y="194.211283" style="fill: #440154; stroke: #440154"/>
    </g>
    <g clip-path="url(#pa366b6870a)">
     <use xlink:href="#C0_0_034f0a98d4" x="340.393916" y="152.447687" style="fill: #440154; stroke: #440154"/>
    </g>
    <g clip-path="url(#pa366b6870a)">
     <use xlink:href="#C0_0_034f0a98d4" x="261.147442" y="221.597963" style="fill: #440154; stroke: #440154"/>
    </g>
    <g clip-path="url(#pa366b6870a)">
     <use xlink:href="#C0_0_034f0a98d4" x="233.42743" y="190.318988" style="fill: #440154; stroke: #440154"/>
    </g>
    <g clip-path="url(#pa366b6870a)">
     <use xlink:href="#C0_0_034f0a98d4" x="379.804727" y="98.939466" style="fill: #440154; stroke: #440154"/>
    </g>
    <g clip-path="url(#pa366b6870a)">
     <use xlink:href="#C0_0_034f0a98d4" x="394.655023" y="156.392463" style="fill: #440154; stroke: #440154"/>
    </g>
    <g clip-path="url(#pa366b6870a)">
     <use xlink:href="#C0_0_034f0a98d4" x="277.338673" y="202.438279" style="fill: #440154; stroke: #440154"/>
    </g>
    <g clip-path="url(#pa366b6870a)">
     <use xlink:href="#C0_0_034f0a98d4" x="374.364282" y="99.91171" style="fill: #440154; stroke: #440154"/>
    </g>
    <g clip-path="url(#pa366b6870a)">
     <use xlink:href="#C0_0_034f0a98d4" x="222.41297" y="165.581463" style="fill: #440154; stroke: #440154"/>
    </g>
    <g clip-path="url(#pa366b6870a)">
     <use xlink:href="#C0_0_034f0a98d4" x="273.021395" y="174.72868" style="fill: #440154; stroke: #440154"/>
    </g>
    <g clip-path="url(#pa366b6870a)">
     <use xlink:href="#C0_0_034f0a98d4" x="261.147442" y="221.597963" style="fill: #440154; stroke: #440154"/>
    </g>
    <g clip-path="url(#pa366b6870a)">
     <use xlink:href="#C0_0_034f0a98d4" x="290.414918" y="112.777859" style="fill: #440154; stroke: #440154"/>
    </g>
    <g clip-path="url(#pa366b6870a)">
     <use xlink:href="#C0_0_034f0a98d4" x="336.433673" y="135.644598" style="fill: #440154; stroke: #440154"/>
    </g>
    <g clip-path="url(#pa366b6870a)">
     <use xlink:href="#C0_0_034f0a98d4" x="268.378861" y="181.275382" style="fill: #440154; stroke: #440154"/>
    </g>
    <g clip-path="url(#pa366b6870a)">
     <use xlink:href="#C0_0_034f0a98d4" x="206.112823" y="151.064443" style="fill: #440154; stroke: #440154"/>
    </g>
    <g clip-path="url(#pa366b6870a)">
     <use xlink:href="#C0_0_034f0a98d4" x="222.41297" y="165.581463" style="fill: #440154; stroke: #440154"/>
    </g>
    <g clip-path="url(#pa366b6870a)">
     <use xlink:href="#C0_0_034f0a98d4" x="184.513256" y="158.438316" style="fill: #440154; stroke: #440154"/>
    </g>
    <g clip-path="url(#pa366b6870a)">
     <use xlink:href="#C0_0_034f0a98d4" x="214.098387" y="226.392407" style="fill: #440154; stroke: #440154"/>
    </g>
    <g clip-path="url(#pa366b6870a)">
     <use xlink:href="#C0_0_034f0a98d4" x="209.670445" y="203.773994" style="fill: #440154; stroke: #440154"/>
    </g>
    <g clip-path="url(#pa366b6870a)">
     <use xlink:href="#C0_0_034f0a98d4" x="248.482807" y="102.756878" style="fill: #440154; stroke: #440154"/>
    </g>
    <g clip-path="url(#pa366b6870a)">
     <use xlink:href="#C0_0_034f0a98d4" x="308.565408" y="100.58869" style="fill: #440154; stroke: #440154"/>
    </g>
    <g clip-path="url(#pa366b6870a)">
     <use xlink:href="#C0_0_034f0a98d4" x="248.987758" y="130.099102" style="fill: #440154; stroke: #440154"/>
    </g>
    <g clip-path="url(#pa366b6870a)">
     <use xlink:href="#C0_0_034f0a98d4" x="206.112823" y="151.064443" style="fill: #440154; stroke: #440154"/>
    </g>
    <g clip-path="url(#pa366b6870a)">
     <use xlink:href="#C0_0_034f0a98d4" x="212.38122" y="140.350454" style="fill: #440154; stroke: #440154"/>
    </g>
    <g clip-path="url(#pa366b6870a)">
     <use xlink:href="#C0_0_034f0a98d4" x="164.18717" y="191.642496" style="fill: #440154; stroke: #440154"/>
    </g>
   </g>
   <g id="matplotlib.axis_1">
    <g id="xtick_1">
     <g id="line2d_1">
      <defs>
       <path id="m48b3541146" d="M 0 0 
L 0 3.5 
" style="stroke: #000000; stroke-width: 0.8"/>
      </defs>
      <g>
       <use xlink:href="#m48b3541146" x="48.473452" y="301.715312" style="stroke: #000000; stroke-width: 0.8"/>
      </g>
     </g>
     <g id="text_1">
      <!-- $\mathdefault{10^{-1}}$ -->
      <g transform="translate(36.723452 318.015312) scale(0.1 -0.1)">
       <defs>
        <path id="DejaVuSans-14" d="M 794 531 
L 1825 531 
L 1825 4091 
L 703 3866 
L 703 4441 
L 1819 4666 
L 2450 4666 
L 2450 531 
L 3481 531 
L 3481 0 
L 794 0 
L 794 531 
z
" transform="scale(0.015625)"/>
        <path id="DejaVuSans-13" d="M 2034 4250 
Q 1547 4250 1301 3770 
Q 1056 3291 1056 2328 
Q 1056 1369 1301 889 
Q 1547 409 2034 409 
Q 2525 409 2770 889 
Q 3016 1369 3016 2328 
Q 3016 3291 2770 3770 
Q 2525 4250 2034 4250 
z
M 2034 4750 
Q 2819 4750 3233 4129 
Q 3647 3509 3647 2328 
Q 3647 1150 3233 529 
Q 2819 -91 2034 -91 
Q 1250 -91 836 529 
Q 422 1150 422 2328 
Q 422 3509 836 4129 
Q 1250 4750 2034 4750 
z
" transform="scale(0.015625)"/>
        <path id="DejaVuSans-c9c" d="M 678 2272 
L 4684 2272 
L 4684 1741 
L 678 1741 
L 678 2272 
z
" transform="scale(0.015625)"/>
       </defs>
       <use xlink:href="#DejaVuSans-14" transform="translate(0 0.665625)"/>
       <use xlink:href="#DejaVuSans-13" transform="translate(63.623047 0.665625)"/>
       <use xlink:href="#DejaVuSans-c9c" transform="translate(128.203125 41.965625) scale(0.7)"/>
       <use xlink:href="#DejaVuSans-14" transform="translate(186.855469 41.965625) scale(0.7)"/>
      </g>
     </g>
    </g>
    <g id="xtick_2">
     <g id="line2d_2">
      <g>
       <use xlink:href="#m48b3541146" x="281.186545" y="301.715312" style="stroke: #000000; stroke-width: 0.8"/>
      </g>
     </g>
     <g id="text_2">
      <!-- $\mathdefault{10^{0}}$ -->
      <g transform="translate(272.386545 318.115312) scale(0.1 -0.1)">
       <use xlink:href="#DejaVuSans-14" transform="translate(0 0.746875)"/>
       <use xlink:href="#DejaVuSans-13" transform="translate(63.623047 0.746875)"/>
       <use xlink:href="#DejaVuSans-13" transform="translate(128.203125 42.046875) scale(0.7)"/>
      </g>
     </g>
    </g>
    <g id="xtick_3">
     <g id="line2d_3">
      <defs>
       <path id="ma0fabe6b94" d="M 0 0 
L 0 2 
" style="stroke: #000000; stroke-width: 0.6"/>
      </defs>
      <g>
       <use xlink:href="#ma0fabe6b94" x="118.527073" y="301.715312" style="stroke: #000000; stroke-width: 0.6"/>
      </g>
     </g>
    </g>
    <g id="xtick_4">
     <g id="line2d_4">
      <g>
       <use xlink:href="#ma0fabe6b94" x="159.505815" y="301.715312" style="stroke: #000000; stroke-width: 0.6"/>
      </g>
     </g>
    </g>
    <g id="xtick_5">
     <g id="line2d_5">
      <g>
       <use xlink:href="#ma0fabe6b94" x="188.580694" y="301.715312" style="stroke: #000000; stroke-width: 0.6"/>
      </g>
     </g>
    </g>
    <g id="xtick_6">
     <g id="line2d_6">
      <g>
       <use xlink:href="#ma0fabe6b94" x="211.132923" y="301.715312" style="stroke: #000000; stroke-width: 0.6"/>
      </g>
     </g>
    </g>
    <g id="xtick_7">
     <g id="line2d_7">
      <g>
       <use xlink:href="#ma0fabe6b94" x="229.559436" y="301.715312" style="stroke: #000000; stroke-width: 0.6"/>
      </g>
     </g>
    </g>
    <g id="xtick_8">
     <g id="line2d_8">
      <g>
       <use xlink:href="#ma0fabe6b94" x="245.13883" y="301.715312" style="stroke: #000000; stroke-width: 0.6"/>
      </g>
     </g>
    </g>
    <g id="xtick_9">
     <g id="line2d_9">
      <g>
       <use xlink:href="#ma0fabe6b94" x="258.634316" y="301.715312" style="stroke: #000000; stroke-width: 0.6"/>
      </g>
     </g>
    </g>
    <g id="xtick_10">
     <g id="line2d_10">
      <g>
       <use xlink:href="#ma0fabe6b94" x="270.538177" y="301.715312" style="stroke: #000000; stroke-width: 0.6"/>
      </g>
     </g>
    </g>
    <g id="xtick_11">
     <g id="line2d_11">
      <g>
       <use xlink:href="#ma0fabe6b94" x="351.240166" y="301.715312" style="stroke: #000000; stroke-width: 0.6"/>
      </g>
     </g>
    </g>
    <g id="xtick_12">
     <g id="line2d_12">
      <g>
       <use xlink:href="#ma0fabe6b94" x="392.218907" y="301.715312" style="stroke: #000000; stroke-width: 0.6"/>
      </g>
     </g>
    </g>
    <g id="xtick_13">
     <g id="line2d_13">
      <g>
       <use xlink:href="#ma0fabe6b94" x="421.293787" y="301.715312" style="stroke: #000000; stroke-width: 0.6"/>
      </g>
     </g>
    </g>
    <g id="xtick_14">
     <g id="line2d_14">
      <g>
       <use xlink:href="#ma0fabe6b94" x="443.846016" y="301.715312" style="stroke: #000000; stroke-width: 0.6"/>
      </g>
     </g>
    </g>
    <g id="text_3">
     <!-- Kx gross (lu², log scale) -->
     <g transform="translate(190.438984 332.116094) scale(0.1 -0.1)">
      <defs>
       <path id="DejaVuSans-2e" d="M 628 4666 
L 1259 4666 
L 1259 2694 
L 3353 4666 
L 4166 4666 
L 1850 2491 
L 4331 0 
L 3500 0 
L 1259 2247 
L 1259 0 
L 628 0 
L 628 4666 
z
" transform="scale(0.015625)"/>
       <path id="DejaVuSans-5b" d="M 3513 3500 
L 2247 1797 
L 3578 0 
L 2900 0 
L 1881 1375 
L 863 0 
L 184 0 
L 1544 1831 
L 300 3500 
L 978 3500 
L 1906 2253 
L 2834 3500 
L 3513 3500 
z
" transform="scale(0.015625)"/>
       <path id="DejaVuSans-3" transform="scale(0.015625)"/>
       <path id="DejaVuSans-4a" d="M 2906 1791 
Q 2906 2416 2648 2759 
Q 2391 3103 1925 3103 
Q 1463 3103 1205 2759 
Q 947 2416 947 1791 
Q 947 1169 1205 825 
Q 1463 481 1925 481 
Q 2391 481 2648 825 
Q 2906 1169 2906 1791 
z
M 3481 434 
Q 3481 -459 3084 -895 
Q 2688 -1331 1869 -1331 
Q 1566 -1331 1297 -1286 
Q 1028 -1241 775 -1147 
L 775 -588 
Q 1028 -725 1275 -790 
Q 1522 -856 1778 -856 
Q 2344 -856 2625 -561 
Q 2906 -266 2906 331 
L 2906 616 
Q 2728 306 2450 153 
Q 2172 0 1784 0 
Q 1141 0 747 490 
Q 353 981 353 1791 
Q 353 2603 747 3093 
Q 1141 3584 1784 3584 
Q 2172 3584 2450 3431 
Q 2728 3278 2906 2969 
L 2906 3500 
L 3481 3500 
L 3481 434 
z
" transform="scale(0.015625)"/>
       <path id="DejaVuSans-55" d="M 2631 2963 
Q 2534 3019 2420 3045 
Q 2306 3072 2169 3072 
Q 1681 3072 1420 2755 
Q 1159 2438 1159 1844 
L 1159 0 
L 581 0 
L 581 3500 
L 1159 3500 
L 1159 2956 
Q 1341 3275 1631 3429 
Q 1922 3584 2338 3584 
Q 2397 3584 2469 3576 
Q 2541 3569 2628 3553 
L 2631 2963 
z
" transform="scale(0.015625)"/>
       <path id="DejaVuSans-52" d="M 1959 3097 
Q 1497 3097 1228 2736 
Q 959 2375 959 1747 
Q 959 1119 1226 758 
Q 1494 397 1959 397 
Q 2419 397 2687 759 
Q 2956 1122 2956 1747 
Q 2956 2369 2687 2733 
Q 2419 3097 1959 3097 
z
M 1959 3584 
Q 2709 3584 3137 3096 
Q 3566 2609 3566 1747 
Q 3566 888 3137 398 
Q 2709 -91 1959 -91 
Q 1206 -91 779 398 
Q 353 888 353 1747 
Q 353 2609 779 3096 
Q 1206 3584 1959 3584 
z
" transform="scale(0.015625)"/>
       <path id="DejaVuSans-56" d="M 2834 3397 
L 2834 2853 
Q 2591 2978 2328 3040 
Q 2066 3103 1784 3103 
Q 1356 3103 1142 2972 
Q 928 2841 928 2578 
Q 928 2378 1081 2264 
Q 1234 2150 1697 2047 
L 1894 2003 
Q 2506 1872 2764 1633 
Q 3022 1394 3022 966 
Q 3022 478 2636 193 
Q 2250 -91 1575 -91 
Q 1294 -91 989 -36 
Q 684 19 347 128 
L 347 722 
Q 666 556 975 473 
Q 1284 391 1588 391 
Q 1994 391 2212 530 
Q 2431 669 2431 922 
Q 2431 1156 2273 1281 
Q 2116 1406 1581 1522 
L 1381 1569 
Q 847 1681 609 1914 
Q 372 2147 372 2553 
Q 372 3047 722 3315 
Q 1072 3584 1716 3584 
Q 2034 3584 2315 3537 
Q 2597 3491 2834 3397 
z
" transform="scale(0.015625)"/>
       <path id="DejaVuSans-b" d="M 1984 4856 
Q 1566 4138 1362 3434 
Q 1159 2731 1159 2009 
Q 1159 1288 1364 580 
Q 1569 -128 1984 -844 
L 1484 -844 
Q 1016 -109 783 600 
Q 550 1309 550 2009 
Q 550 2706 781 3412 
Q 1013 4119 1484 4856 
L 1984 4856 
z
" transform="scale(0.015625)"/>
       <path id="DejaVuSans-4f" d="M 603 4863 
L 1178 4863 
L 1178 0 
L 603 0 
L 603 4863 
z
" transform="scale(0.015625)"/>
       <path id="DejaVuSans-58" d="M 544 1381 
L 544 3500 
L 1119 3500 
L 1119 1403 
Q 1119 906 1312 657 
Q 1506 409 1894 409 
Q 2359 409 2629 706 
Q 2900 1003 2900 1516 
L 2900 3500 
L 3475 3500 
L 3475 0 
L 2900 0 
L 2900 538 
Q 2691 219 2414 64 
Q 2138 -91 1772 -91 
Q 1169 -91 856 284 
Q 544 659 544 1381 
z
M 1991 3584 
L 1991 3584 
z
" transform="scale(0.015625)"/>
       <path id="DejaVuSans-74" d="M 838 2444 
L 2163 2444 
L 2163 2088 
L 294 2088 
L 294 2431 
Q 400 2528 597 2703 
Q 1672 3656 1672 3950 
Q 1672 4156 1509 4282 
Q 1347 4409 1081 4409 
Q 919 4409 728 4354 
Q 538 4300 313 4191 
L 313 4575 
Q 553 4663 761 4706 
Q 969 4750 1147 4750 
Q 1600 4750 1872 4544 
Q 2144 4338 2144 4000 
Q 2144 3566 1109 2678 
Q 934 2528 838 2444 
z
" transform="scale(0.015625)"/>
       <path id="DejaVuSans-f" d="M 750 794 
L 1409 794 
L 1409 256 
L 897 -744 
L 494 -744 
L 750 256 
L 750 794 
z
" transform="scale(0.015625)"/>
       <path id="DejaVuSans-46" d="M 3122 3366 
L 3122 2828 
Q 2878 2963 2633 3030 
Q 2388 3097 2138 3097 
Q 1578 3097 1268 2742 
Q 959 2388 959 1747 
Q 959 1106 1268 751 
Q 1578 397 2138 397 
Q 2388 397 2633 464 
Q 2878 531 3122 666 
L 3122 134 
Q 2881 22 2623 -34 
Q 2366 -91 2075 -91 
Q 1284 -91 818 406 
Q 353 903 353 1747 
Q 353 2603 823 3093 
Q 1294 3584 2113 3584 
Q 2378 3584 2631 3529 
Q 2884 3475 3122 3366 
z
" transform="scale(0.015625)"/>
       <path id="DejaVuSans-44" d="M 2194 1759 
Q 1497 1759 1228 1600 
Q 959 1441 959 1056 
Q 959 750 1161 570 
Q 1363 391 1709 391 
Q 2188 391 2477 730 
Q 2766 1069 2766 1631 
L 2766 1759 
L 2194 1759 
z
M 3341 1997 
L 3341 0 
L 2766 0 
L 2766 531 
Q 2569 213 2275 61 
Q 1981 -91 1556 -91 
Q 1019 -91 701 211 
Q 384 513 384 1019 
Q 384 1609 779 1909 
Q 1175 2209 1959 2209 
L 2766 2209 
L 2766 2266 
Q 2766 2663 2505 2880 
Q 2244 3097 1772 3097 
Q 1472 3097 1187 3025 
Q 903 2953 641 2809 
L 641 3341 
Q 956 3463 1253 3523 
Q 1550 3584 1831 3584 
Q 2591 3584 2966 3190 
Q 3341 2797 3341 1997 
z
" transform="scale(0.015625)"/>
       <path id="DejaVuSans-48" d="M 3597 1894 
L 3597 1613 
L 953 1613 
Q 991 1019 1311 708 
Q 1631 397 2203 397 
Q 2534 397 2845 478 
Q 3156 559 3463 722 
L 3463 178 
Q 3153 47 2828 -22 
Q 2503 -91 2169 -91 
Q 1331 -91 842 396 
Q 353 884 353 1716 
Q 353 2575 817 3079 
Q 1281 3584 2069 3584 
Q 2775 3584 3186 3129 
Q 3597 2675 3597 1894 
z
M 3022 2063 
Q 3016 2534 2758 2815 
Q 2500 3097 2075 3097 
Q 1594 3097 1305 2825 
Q 1016 2553 972 2059 
L 3022 2063 
z
" transform="scale(0.015625)"/>
       <path id="DejaVuSans-c" d="M 513 4856 
L 1013 4856 
Q 1481 4119 1714 3412 
Q 1947 2706 1947 2009 
Q 1947 1309 1714 600 
Q 1481 -109 1013 -844 
L 513 -844 
Q 928 -128 1133 580 
Q 1338 1288 1338 2009 
Q 1338 2731 1133 3434 
Q 928 4138 513 4856 
z
" transform="scale(0.015625)"/>
      </defs>
      <use xlink:href="#DejaVuSans-2e"/>
      <use xlink:href="#DejaVuSans-5b" transform="translate(65.578125 0)"/>
      <use xlink:href="#DejaVuSans-3" transform="translate(124.765625 0)"/>
      <use xlink:href="#DejaVuSans-4a" transform="translate(156.546875 0)"/>
      <use xlink:href="#DejaVuSans-55" transform="translate(220.03125 0)"/>
      <use xlink:href="#DejaVuSans-52" transform="translate(258.9375 0)"/>
      <use xlink:href="#DejaVuSans-56" transform="translate(320.125 0)"/>
      <use xlink:href="#DejaVuSans-56" transform="translate(372.21875 0)"/>
      <use xlink:href="#DejaVuSans-3" transform="translate(424.3125 0)"/>
      <use xlink:href="#DejaVuSans-b" transform="translate(456.09375 0)"/>
      <use xlink:href="#DejaVuSans-4f" transform="translate(495.109375 0)"/>
      <use xlink:href="#DejaVuSans-58" transform="translate(522.890625 0)"/>
      <use xlink:href="#DejaVuSans-74" transform="translate(586.265625 0)"/>
      <use xlink:href="#DejaVuSans-f" transform="translate(626.359375 0)"/>
      <use xlink:href="#DejaVuSans-3" transform="translate(658.140625 0)"/>
      <use xlink:href="#DejaVuSans-4f" transform="translate(689.921875 0)"/>
      <use xlink:href="#DejaVuSans-52" transform="translate(717.703125 0)"/>
      <use xlink:href="#DejaVuSans-4a" transform="translate(778.890625 0)"/>
      <use xlink:href="#DejaVuSans-3" transform="translate(842.375 0)"/>
      <use xlink:href="#DejaVuSans-56" transform="translate(874.15625 0)"/>
      <use xlink:href="#DejaVuSans-46" transform="translate(926.25 0)"/>
      <use xlink:href="#DejaVuSans-44" transform="translate(981.234375 0)"/>
      <use xlink:href="#DejaVuSans-4f" transform="translate(1042.515625 0)"/>
      <use xlink:href="#DejaVuSans-48" transform="translate(1070.296875 0)"/>
      <use xlink:href="#DejaVuSans-c" transform="translate(1131.828125 0)"/>
     </g>
    </g>
   </g>
   <g id="matplotlib.axis_2">
    <g id="ytick_1">
     <g id="line2d_15">
      <defs>
       <path id="ma664323163" d="M 0 0 
L -3.5 0 
" style="stroke: #000000; stroke-width: 0.8"/>
      </defs>
      <g>
       <use xlink:href="#ma664323163" x="47.962344" y="248.153701" style="stroke: #000000; stroke-width: 0.8"/>
      </g>
     </g>
     <g id="text_4">
      <!-- 0.4 -->
      <g transform="translate(25.059219 251.952529) scale(0.1 -0.1)">
       <defs>
        <path id="DejaVuSans-11" d="M 684 794 
L 1344 794 
L 1344 0 
L 684 0 
L 684 794 
z
" transform="scale(0.015625)"/>
        <path id="DejaVuSans-17" d="M 2419 4116 
L 825 1625 
L 2419 1625 
L 2419 4116 
z
M 2253 4666 
L 3047 4666 
L 3047 1625 
L 3713 1625 
L 3713 1100 
L 3047 1100 
L 3047 0 
L 2419 0 
L 2419 1100 
L 313 1100 
L 313 1709 
L 2253 4666 
z
" transform="scale(0.015625)"/>
       </defs>
       <use xlink:href="#DejaVuSans-13"/>
       <use xlink:href="#DejaVuSans-11" transform="translate(63.625 0)"/>
       <use xlink:href="#DejaVuSans-17" transform="translate(95.40625 0)"/>
      </g>
     </g>
    </g>
    <g id="ytick_2">
     <g id="line2d_16">
      <g>
       <use xlink:href="#ma664323163" x="47.962344" y="188.753288" style="stroke: #000000; stroke-width: 0.8"/>
      </g>
     </g>
     <g id="text_5">
      <!-- 0.5 -->
      <g transform="translate(25.059219 192.552116) scale(0.1 -0.1)">
       <defs>
        <path id="DejaVuSans-18" d="M 691 4666 
L 3169 4666 
L 3169 4134 
L 1269 4134 
L 1269 2991 
Q 1406 3038 1543 3061 
Q 1681 3084 1819 3084 
Q 2600 3084 3056 2656 
Q 3513 2228 3513 1497 
Q 3513 744 3044 326 
Q 2575 -91 1722 -91 
Q 1428 -91 1123 -41 
Q 819 9 494 109 
L 494 744 
Q 775 591 1075 516 
Q 1375 441 1709 441 
Q 2250 441 2565 725 
Q 2881 1009 2881 1497 
Q 2881 1984 2565 2268 
Q 2250 2553 1709 2553 
Q 1456 2553 1204 2497 
Q 953 2441 691 2322 
L 691 4666 
z
" transform="scale(0.015625)"/>
       </defs>
       <use xlink:href="#DejaVuSans-13"/>
       <use xlink:href="#DejaVuSans-11" transform="translate(63.625 0)"/>
       <use xlink:href="#DejaVuSans-18" transform="translate(95.40625 0)"/>
      </g>
     </g>
    </g>
    <g id="ytick_3">
     <g id="line2d_17">
      <g>
       <use xlink:href="#ma664323163" x="47.962344" y="129.352876" style="stroke: #000000; stroke-width: 0.8"/>
      </g>
     </g>
     <g id="text_6">
      <!-- 0.6 -->
      <g transform="translate(25.059219 133.151704) scale(0.1 -0.1)">
       <defs>
        <path id="DejaVuSans-19" d="M 2113 2584 
Q 1688 2584 1439 2293 
Q 1191 2003 1191 1497 
Q 1191 994 1439 701 
Q 1688 409 2113 409 
Q 2538 409 2786 701 
Q 3034 994 3034 1497 
Q 3034 2003 2786 2293 
Q 2538 2584 2113 2584 
z
M 3366 4563 
L 3366 3988 
Q 3128 4100 2886 4159 
Q 2644 4219 2406 4219 
Q 1781 4219 1451 3797 
Q 1122 3375 1075 2522 
Q 1259 2794 1537 2939 
Q 1816 3084 2150 3084 
Q 2853 3084 3261 2657 
Q 3669 2231 3669 1497 
Q 3669 778 3244 343 
Q 2819 -91 2113 -91 
Q 1303 -91 875 529 
Q 447 1150 447 2328 
Q 447 3434 972 4092 
Q 1497 4750 2381 4750 
Q 2619 4750 2861 4703 
Q 3103 4656 3366 4563 
z
" transform="scale(0.015625)"/>
       </defs>
       <use xlink:href="#DejaVuSans-13"/>
       <use xlink:href="#DejaVuSans-11" transform="translate(63.625 0)"/>
       <use xlink:href="#DejaVuSans-19" transform="translate(95.40625 0)"/>
      </g>
     </g>
    </g>
    <g id="ytick_4">
     <g id="line2d_18">
      <g>
       <use xlink:href="#ma664323163" x="47.962344" y="69.952463" style="stroke: #000000; stroke-width: 0.8"/>
      </g>
     </g>
     <g id="text_7">
      <!-- 0.7 -->
      <g transform="translate(25.059219 73.751291) scale(0.1 -0.1)">
       <defs>
        <path id="DejaVuSans-1a" d="M 525 4666 
L 3525 4666 
L 3525 4397 
L 1831 0 
L 1172 0 
L 2766 4134 
L 525 4134 
L 525 4666 
z
" transform="scale(0.015625)"/>
       </defs>
       <use xlink:href="#DejaVuSans-13"/>
       <use xlink:href="#DejaVuSans-11" transform="translate(63.625 0)"/>
       <use xlink:href="#DejaVuSans-1a" transform="translate(95.40625 0)"/>
      </g>
     </g>
    </g>
    <g id="text_8">
     <!-- flux Gini -->
     <g transform="translate(18.656875 176.945156) rotate(-90) scale(0.1 -0.1)">
      <defs>
       <path id="DejaVuSans-13b0" d="M 1831 4863 
L 3431 4863 
L 3431 0 
L 2853 0 
L 2853 4384 
L 1825 4384 
Q 1516 4384 1395 4259 
Q 1275 4134 1275 3809 
L 1275 3500 
L 2222 3500 
L 2222 3053 
L 1275 3053 
L 1275 0 
L 697 0 
L 697 3053 
L 147 3053 
L 147 3500 
L 697 3500 
L 697 3744 
Q 697 4328 969 4595 
Q 1241 4863 1831 4863 
z
" transform="scale(0.015625)"/>
       <path id="DejaVuSans-2a" d="M 3809 666 
L 3809 1919 
L 2778 1919 
L 2778 2438 
L 4434 2438 
L 4434 434 
Q 4069 175 3628 42 
Q 3188 -91 2688 -91 
Q 1594 -91 976 548 
Q 359 1188 359 2328 
Q 359 3472 976 4111 
Q 1594 4750 2688 4750 
Q 3144 4750 3555 4637 
Q 3966 4525 4313 4306 
L 4313 3634 
Q 3963 3931 3569 4081 
Q 3175 4231 2741 4231 
Q 1884 4231 1454 3753 
Q 1025 3275 1025 2328 
Q 1025 1384 1454 906 
Q 1884 428 2741 428 
Q 3075 428 3337 486 
Q 3600 544 3809 666 
z
" transform="scale(0.015625)"/>
       <path id="DejaVuSans-4c" d="M 603 3500 
L 1178 3500 
L 1178 0 
L 603 0 
L 603 3500 
z
M 603 4863 
L 1178 4863 
L 1178 4134 
L 603 4134 
L 603 4863 
z
" transform="scale(0.015625)"/>
       <path id="DejaVuSans-51" d="M 3513 2113 
L 3513 0 
L 2938 0 
L 2938 2094 
Q 2938 2591 2744 2837 
Q 2550 3084 2163 3084 
Q 1697 3084 1428 2787 
Q 1159 2491 1159 1978 
L 1159 0 
L 581 0 
L 581 3500 
L 1159 3500 
L 1159 2956 
Q 1366 3272 1645 3428 
Q 1925 3584 2291 3584 
Q 2894 3584 3203 3211 
Q 3513 2838 3513 2113 
z
" transform="scale(0.015625)"/>
      </defs>
      <use xlink:href="#DejaVuSans-13b0"/>
      <use xlink:href="#DejaVuSans-58" transform="translate(62.984375 0)"/>
      <use xlink:href="#DejaVuSans-5b" transform="translate(126.359375 0)"/>
      <use xlink:href="#DejaVuSans-3" transform="translate(185.546875 0)"/>
      <use xlink:href="#DejaVuSans-2a" transform="translate(217.328125 0)"/>
      <use xlink:href="#DejaVuSans-4c" transform="translate(294.8125 0)"/>
      <use xlink:href="#DejaVuSans-51" transform="translate(322.59375 0)"/>
      <use xlink:href="#DejaVuSans-4c" transform="translate(385.96875 0)"/>
     </g>
    </g>
   </g>
   <g id="patch_3">
    <path d="M 47.962344 301.715312 
L 47.962344 10.8 
" style="fill: none; stroke: #000000; stroke-width: 0.8; stroke-linejoin: miter; stroke-linecap: square"/>
   </g>
   <g id="patch_4">
    <path d="M 450 301.715312 
L 450 10.8 
" style="fill: none; stroke: #000000; stroke-width: 0.8; stroke-linejoin: miter; stroke-linecap: square"/>
   </g>
   <g id="patch_5">
    <path d="M 47.962344 301.715312 
L 450 301.715312 
" style="fill: none; stroke: #000000; stroke-width: 0.8; stroke-linejoin: miter; stroke-linecap: square"/>
   </g>
   <g id="patch_6">
    <path d="M 47.962344 10.8 
L 450 10.8 
" style="fill: none; stroke: #000000; stroke-width: 0.8; stroke-linejoin: miter; stroke-linecap: square"/>
   </g>
  </g>
 </g>
 <defs>
  <clipPath id="pa366b6870a">
   <rect x="47.962344" y="10.8" width="402.037656" height="290.915312"/>
  </clipPath>
 </defs>
</svg>
